<?xml version="1.0" standalone="no"?>
<!DOCTYPE svg PUBLIC "-//W3C//DTD SVG 20010904//EN"
 "http://www.w3.org/TR/2001/REC-SVG-20010904/DTD/svg10.dtd">
<svg version="1.0" xmlns="http://www.w3.org/2000/svg"
 width="1000.000000pt" height="200.000000pt" viewBox="0 0 1000.000000 200.000000"
 preserveAspectRatio="xMidYMid meet">
<metadata>
Created by potrace 1.15, written by Peter Selinger 2001-2017
</metadata>
<g transform="translate(0.000000,200.000000) scale(0.100000,-0.100000)"
fill="#000000" stroke="none">
<path d="M0 1000 l0 -1000 3749 0 3750 0 64 30 c36 16 70 30 75 30 6 0 13 6
15 13 4 9 6 9 6 0 1 -7 -15 -19 -34 -27 -19 -8 -35 -18 -35 -21 0 -3 4 -4 9 0
5 3 12 1 15 -4 4 -5 -2 -12 -11 -14 -10 -3 494 -5 1120 -6 l1139 -1 -48 68
c-209 295 -474 615 -755 909 -330 346 -713 665 -1126 942 -111 74 -126 81
-171 81 l-50 0 -4 -237 c-2 -131 0 -239 4 -241 4 -2 8 -11 8 -19 0 -10 -6 -14
-19 -10 -17 4 -20 -5 -30 -82 -6 -48 -11 -97 -11 -109 0 -12 -5 -22 -11 -22
-8 0 -10 -18 -7 -57 3 -32 3 -50 1 -40 -3 9 -8 17 -13 17 -11 0 -40 -87 -40
-122 0 -16 -9 -46 -19 -67 -12 -23 -17 -47 -14 -61 5 -20 3 -22 -15 -18 -20 6
-22 2 -22 -38 0 -24 -4 -44 -10 -44 -5 0 -12 -11 -16 -25 -3 -14 -10 -25 -15
-25 -5 0 -9 -16 -9 -36 0 -33 -2 -35 -17 -23 -15 12 -16 12 -11 -8 4 -16 2
-20 -8 -16 -11 4 -14 -5 -14 -36 0 -33 -4 -41 -18 -41 -17 0 -42 -47 -42 -79
0 -7 -15 -27 -33 -44 -20 -19 -27 -32 -19 -34 6 -3 12 -9 12 -14 0 -14 -28
-11 -33 4 -3 6 -6 4 -6 -7 -1 -10 -26 -43 -56 -72 -30 -30 -55 -58 -55 -64 0
-5 -11 -10 -25 -10 -20 0 -25 5 -25 25 0 30 -24 33 -57 7 -39 -31 -32 -131 10
-133 17 -1 18 -2 4 -6 -34 -9 -6 -21 30 -12 21 4 94 15 163 24 69 9 186 28
260 41 74 14 151 27 170 30 19 3 73 14 119 25 46 11 85 18 88 16 3 -4 -71 -23
-247 -62 -101 -23 -313 -62 -435 -80 -60 -9 -121 -18 -135 -21 -21 -4 -28 2
-45 33 -10 21 -26 47 -36 58 -15 18 -59 80 -116 164 -13 19 -23 29 -23 24 0
-9 69 -125 111 -185 11 -15 19 -30 19 -34 0 -3 9 -19 20 -35 l21 -28 -23 -5
c-138 -29 -858 -59 -858 -35 0 5 -52 8 -122 7 -88 -1 -110 -3 -78 -8 39 -6 35
-7 -30 -7 -41 -1 -66 1 -55 4 11 3 25 9 30 15 7 6 -35 9 -120 7 -71 -1 -138 2
-148 6 -10 4 -45 4 -78 1 -34 -4 -66 -3 -72 2 -7 5 -46 12 -87 15 -359 29
-848 90 -1100 137 -30 5 -118 21 -195 36 -296 54 -723 155 -1015 239 -69 20
-155 45 -191 55 -37 11 -78 24 -90 29 -13 5 -90 31 -171 58 -82 26 -148 51
-148 56 0 4 3 6 8 4 4 -3 25 -1 47 3 37 7 38 8 9 9 -23 1 -33 7 -37 21 -3 11
-12 20 -21 20 -14 0 -16 8 -11 52 4 29 8 58 10 65 2 7 0 15 -5 18 -5 3 -10 -9
-12 -27 -3 -31 -4 -31 -21 -13 -14 13 -15 20 -6 25 8 6 3 24 -20 66 -17 32
-31 66 -31 76 0 10 -4 18 -10 18 -5 0 -10 18 -10 40 0 29 -4 40 -15 40 -12 0
-15 16 -15 80 0 44 -4 80 -9 80 -5 0 -12 36 -16 80 -4 44 -10 80 -15 80 -4 0
-10 53 -13 117 -4 66 -11 119 -17 121 -5 2 -10 30 -10 61 0 32 -3 86 -6 120
l-7 61 -1128 0 -1129 0 0 -1000z"/>
</g>
</svg>
